<?xml version="1.0" encoding="UTF-8" standalone="no"?>
<svg width="400px" height="200px" viewBox="0 0 400 200" version="1.1" xmlns="http://www.w3.org/2000/svg" xmlns:xlink="http://www.w3.org/1999/xlink" xmlns:sketch="http://www.bohemiancoding.com/sketch/ns">
    <!-- Generator: Sketch 3.4.3 (16044) - http://www.bohemiancoding.com/sketch -->
    <title>awesomeSwift Log</title>
    <desc>Created with Sketch.</desc>
    <defs>
        <path id="path-1" d="M55,162 C55,162 70.5173154,178.062511 90.8640859,170.031256"></path>
    </defs>
    <g id="Page-1" stroke="none" stroke-width="1" fill="none" fill-rule="evenodd" sketch:type="MSPage">
        <g id="awesomeSwift-Log" sketch:type="MSArtboardGroup">
            <path d="M109.891611,139.454453 C107.931681,143.261305 105.360218,146.462339 102.177148,149.057653 C98.9940768,151.652966 95.2545189,153.589343 90.9583617,154.86684 C86.6622045,156.144337 82.1886242,156.742484 77.5374866,156.661298 C70.3985312,156.536687 71.5909159,153.311548 77.4318794,153.413502 C81.6503531,153.487136 85.6632908,152.935047 89.470813,151.75722 C93.2783352,150.579393 96.6625829,148.853209 99.6236576,146.578618 C102.584732,144.304026 104.933258,141.47779 106.669304,138.099826 C108.40535,134.721862 109.312065,130.815536 109.389474,126.380731 C109.466884,121.945925 108.612624,118.198206 106.826667,115.137462 C105.04071,112.076717 102.706407,109.439236 99.8236858,107.224939 C96.9409649,105.010642 93.6465349,103.140832 89.9402968,101.615454 C86.2340587,100.090075 82.4984751,98.6994533 78.7334339,97.4435458 C74.0005629,95.846148 69.6747953,94.1747309 65.7560013,92.4292444 C61.8372073,90.6837579 58.465902,88.5691624 55.6419843,86.0853945 C52.8180665,83.6016265 50.6516734,80.6424842 49.1427399,77.2078788 C47.6338064,73.7732735 46.9218314,69.6222983 47.0067934,64.7548287 C47.0898673,59.9955251 48.1104102,55.7665937 50.0684526,52.0679078 C52.0264949,48.3692219 54.6501512,45.2772956 57.9394999,42.7920361 C61.2288487,40.3067767 65.0215448,38.4254266 69.317702,37.1479295 C73.6138592,35.8704323 78.1415217,35.2732297 82.9008253,35.3563037 C88.7417888,35.4582581 94.2658605,36.6637037 99.4732062,38.9726766 C104.680552,41.2816496 114.439389,47.8409763 117.718709,64.2642262 L114.045387,64.2001081 C111.631856,49.0540354 102.627567,44.2212703 97.9591636,42.0299035 C93.2907599,39.8385367 88.1984016,38.6947254 82.6819361,38.5984351 C78.7879604,38.5304655 74.9657263,39.0047348 71.2151192,40.0212572 C67.4645121,41.0377796 64.0555833,42.6282857 60.9882306,44.7928232 C57.920878,46.9573608 55.4385633,49.7001129 53.5412121,53.0211619 C51.6438608,56.3422109 50.6555511,60.2741622 50.5762532,64.8171338 C50.4988434,69.2519395 51.2444676,73.0248114 52.8131482,76.1358628 C54.3818288,79.2469142 56.4993318,81.9076605 59.1657207,84.1181814 C61.8321096,86.3287023 64.8566007,88.1667509 68.2392849,89.6323821 C71.621969,91.0980134 75.0876137,92.4568744 78.6363229,93.7090057 C83.4754719,95.4164576 87.9895831,97.1452609 92.178792,98.8954675 C96.368001,100.645674 100.03723,102.738421 103.18659,105.17377 C106.33595,107.609119 108.773226,110.54594 110.498491,113.984321 C112.223757,117.422703 113.043896,121.575566 112.958934,126.443036 C112.873972,131.310505 111.851541,135.647601 109.891611,139.454453 Z M211.075045,153.62558 L206.206859,153.62558 L181.865925,82.8745996 L181.541379,82.8745996 L157.362719,153.62558 L152.494532,153.62558 L130.749965,78.9800502 L134.482241,78.9800502 L154.928625,150.055576 L155.253171,150.055576 L179.269559,78.9800502 L184.300018,78.9800502 L208.478679,150.055576 L208.803225,150.055576 L229.249609,78.9800502 L232.981886,78.9800502 L211.075045,153.62558 Z M256.836,50.9068402 C255.862358,50.9068402 254.996911,50.5282072 254.239634,49.77093 C253.482357,49.0136527 253.103724,47.9859346 253.103724,46.687745 C253.103724,45.4977379 253.482357,44.5241103 254.239634,43.766833 C254.996911,43.0095557 255.862358,42.6309228 256.836,42.6309228 C257.809643,42.6309228 258.675089,43.0095557 259.432367,43.766833 C260.189644,44.5241103 260.568277,45.4977379 260.568277,46.687745 C260.568277,47.9859346 260.162599,49.0136527 259.35123,49.77093 C258.539862,50.5282072 257.70146,50.9068402 256.836,50.9068402 L256.836,50.9068402 Z M255.050999,153.62558 L255.050999,78.9800502 L258.621002,78.9800502 L258.621002,153.62558 L255.050999,153.62558 Z M320.933792,32.7322765 C319.851967,32.5159115 318.770159,32.3265951 317.688334,32.1643214 C316.60651,32.0020477 315.470611,31.920912 314.280604,31.920912 C311.359677,31.920912 308.871517,32.5159067 306.816051,33.7059138 C304.760584,34.895921 303.110826,36.437498 301.866727,38.3306912 C300.622629,40.2238844 299.730137,42.3604561 299.189225,44.7404704 C298.648312,47.1204846 298.37786,49.5545537 298.37786,52.0427504 L298.37786,78.9800502 L318.661972,78.9800502 L318.661972,82.0632351 L298.37786,82.0632351 L298.37786,153.62558 L294.807857,153.62558 L294.807857,82.0632351 L279.067386,82.0632351 L279.067386,78.9800502 L294.645584,78.9800502 L294.645584,52.2050233 C294.645584,47.6613597 295.240578,43.8750301 296.430586,40.845921 C297.620593,37.8168119 299.16217,35.4368333 301.055363,33.7059138 C302.948556,31.9749943 305.031037,30.7579598 307.302869,30.0547738 C309.574701,29.3515877 311.846499,29 314.118331,29 C316.931075,29 319.419234,29.3245425 321.582884,29.9736373 L320.933792,32.7322765 Z M366.370201,153.787853 C365.072012,154.328765 363.55748,154.761488 361.82656,155.086036 C360.095641,155.410583 358.418838,155.572854 356.796101,155.572854 C350.954248,155.572854 346.76224,153.923096 344.219952,150.623531 C341.677664,147.323966 340.406539,143.186049 340.406539,138.209655 L340.406539,82.0632351 L324.17925,82.0632351 L324.17925,78.9800502 L340.244266,78.9800502 L340.244266,57.07321 L343.976542,57.07321 L343.976542,78.9800502 L365.883383,78.9800502 L365.883383,82.0632351 L343.976542,82.0632351 L343.976542,138.209655 C343.976542,143.294231 345.220622,146.945335 347.708819,149.163075 C350.197016,151.380816 353.496531,152.489669 357.607465,152.489669 C360.636574,152.489669 363.395186,152.002856 365.883383,151.029213 L366.370201,153.787853 Z" id="Swift" fill="#F8A500" sketch:type="MSShapeGroup"></path>
            <path d="M47.1419436,65.3386766 L41.1329873,70.8888855 L84.1349439,70.840071 L84.1349439,70.8393299 L84.4614087,70.8397005 L84.7878735,70.8393299 L84.7878735,70.840071 L127.78983,70.8888855 L117.204562,61.1117381 C116.826772,58.3998439 115.682459,54.7615221 113.040808,50 L135.901546,70.856245 L135.922817,87.4963019 C135.922817,87.4963019 135.164384,98.9765901 121.683488,99.9752442 C121.683488,99.975243 102.732557,100.084168 102.732557,100.084168 C102.732557,100.084168 89.30704,98.8529981 88.517433,85.9112202 C88.5174329,85.9112191 88.5486065,76.663688 88.5486065,76.663688 L84.4614087,76.663688 L80.374211,76.663688 C80.374211,76.663688 80.4053846,85.9112191 80.4053845,85.9112202 C79.6157775,98.8529981 66.1902606,100.084168 66.1902606,100.084168 C66.1902606,100.084168 47.2393296,99.975243 47.2393292,99.9752442 C33.758433,98.9765901 33,87.4963019 33,87.4963019 L33.0212713,70.856245 L48.0449814,57.1498558 C46.7863642,60.9868474 46.7975513,63.6323941 47.1419436,65.3386766 Z" id="Path-1362" fill="#FE5DA8" sketch:type="MSShapeGroup"></path>
            <g id="Path-1376">
                <use stroke="#F7A500" stroke-width="3" sketch:type="MSShapeGroup" xlink:href="#path-1"></use>
                <use stroke="none" xlink:href="#path-1"></use>
            </g>
            <path id="Path-1374" stroke="#979797" sketch:type="MSShapeGroup" d=""></path>
            <path id="Path-1375" stroke="#979797" sketch:type="MSShapeGroup" d=""></path>
        </g>
    </g>
</svg>